<?xml version="1.0" encoding="UTF-8"?>
<svg width="49px" height="500px" viewBox="0 0 49 500" version="1.1" xmlns="http://www.w3.org/2000/svg" xmlns:xlink="http://www.w3.org/1999/xlink">
    <!-- Generator: Sketch 52.6 (67491) - http://www.bohemiancoding.com/sketch -->
    <title>Group 31</title>
    <desc>Created with Sketch.</desc>
    <defs>
        <polygon id="path-1" points="0.262007874 0.639107612 22.926706 0.639107612 22.926706 19.7902887 0.262007874 19.7902887"></polygon>
        <polygon id="path-3" points="0.331233596 0.423425197 46.6251969 0.423425197 46.6251969 47.2440945 0.331233596 47.2440945"></polygon>
    </defs>
    <g id="Page-1" stroke="none" stroke-width="1" fill="none" fill-rule="evenodd">
        <g id="2" transform="translate(-696.000000, -135.000000)">
            <g id="Group-31" transform="translate(696.000000, 135.000000)">
                <g id="Group-3" transform="translate(0.656168, 0.017060)">
                    <mask id="mask-2" fill="white">
                        <use xlink:href="#path-1"></use>
                    </mask>
                    <g id="Clip-2"></g>
                    <path d="M12.321063,5.57112861 L18.6064961,5.57112861 L18.6064961,11.1498688 C18.6064961,13.439895 17.8650262,14.8257218 15.4798556,14.8257218 C12.9962598,14.8257218 12.321063,13.3742782 12.321063,11.1826772 L12.321063,5.57112861 Z M8.03366142,11.1498688 C8.03366142,17.1793963 10.6117454,19.7902887 15.4798556,19.7902887 C20.3158136,19.7902887 22.926706,17.2437008 22.926706,11.0855643 L22.926706,0.638713911 L0.262007874,0.638713911 L0.262007874,5.57112861 L8.03366142,5.57112861 L8.03366142,11.1498688 Z" id="Fill-1" fill="#FFFFFF" mask="url(#mask-2)"></path>
                </g>
                <path d="M13.0720472,28.0503937 L19.262336,28.0503937 L19.262336,34.0812336 C19.262336,36.4677165 18.426378,38.0143045 15.9099738,38.0143045 C13.8463255,38.0143045 13.0720472,36.4349081 13.0720472,34.114042 L13.0720472,28.0503937 Z M15.9427822,43.2059055 C21.4572178,43.2059055 23.5832021,39.4001312 23.5832021,34.0169291 L23.5832021,23.117979 L0.917847769,23.117979 L0.917847769,28.0503937 L8.65669291,28.0503937 L8.65669291,34.1448819 L0.917847769,38.5313648 L0.917847769,44.4624672 L9.75183727,39.3364829 C11.1402887,41.8509186 12.8161417,43.2059055 15.9427822,43.2059055 Z" id="Fill-4" fill="#FFFFFF"></path>
                <path d="M12.2685039,51.1620735 C17.3925197,51.1620735 19.9089239,53.0958005 19.9089239,57.062336 C19.9089239,61.3169291 17.3925197,63.0590551 12.2685039,63.0590551 C7.26850394,63.0590551 4.8183727,61.0918635 4.8183727,57.062336 C4.8183727,53.1594488 7.26850394,51.1620735 12.2685039,51.1620735 M12.2685039,68.1207349 C19.8137795,68.1207349 24.1339895,63.8313648 24.1339895,57.062336 C24.1339895,50.515748 19.8137795,46.0347769 12.2685039,46.0347769 C4.20813648,46.0347769 0.435826772,50.6128609 0.435826772,57.062336 C0.435826772,63.574147 4.20813648,68.1207349 12.2685039,68.1207349" id="Fill-6" fill="#FFFFFF"></path>
                <path d="M7.98097113,82.2326772 L23.5826772,82.2326772 L23.5826772,77.298294 L9.27034121,77.298294 C6.56036745,77.298294 4.94947507,76.8475066 4.94947507,73.7215223 C4.94947507,72.3993438 5.37007874,71.1080052 5.94685039,69.7221785 L1.30511811,69.7221785 C0.69160105,71.1408136 0.402887139,72.6880577 0.402887139,74.1723097 C0.402887139,79.7490814 2.82086614,82.2326772 7.98097113,82.2326772" id="Fill-8" fill="#FFFFFF"></path>
                <polygon id="Fill-10" fill="#FFFFFF" points="23.5829396 105.020079 23.5829396 87.7707349 0.917585302 87.7707349 0.917585302 105.149344 5.27125984 105.149344 5.27125984 92.7031496 10.3001312 92.7031496 10.3001312 104.375722 14.5586614 104.375722 14.5586614 92.7031496 19.2627297 92.7031496 19.2627297 105.020079"></polygon>
                <path d="M10.2051837,129.868898 L10.2051837,124.710105 C6.5601706,124.226509 4.81870079,122.35643 4.81870079,119.230446 C4.81870079,115.296719 7.26883202,113.264567 12.5240814,113.264567 C17.4256562,113.264567 19.7812992,115.296719 19.7812992,119.164829 C19.7812992,122.389239 18.1999344,124.195669 14.9420604,124.613648 L14.9420604,129.772441 C21.2307743,128.933858 24.0687008,124.582808 24.0687008,119.164829 C24.0687008,112.587402 19.8141076,108.105774 12.5240814,108.105774 C4.07723097,108.105774 0.435498688,112.81378 0.435498688,119.230446 C0.435498688,125.130052 3.72290026,129.288189 10.2051837,129.868898" id="Fill-12" fill="#FFFFFF"></path>
                <polygon id="Fill-14" fill="#FFFFFF" points="19.2624016 152.33143 23.5826115 152.33143 23.5826115 131.149016 19.2624016 131.149016 19.2624016 139.242192 0.917913386 139.242192 0.917913386 144.17395 19.2624016 144.17395"></polygon>
                <polygon id="Fill-16" fill="#FFFFFF" points="47.2812336 181.42874 47.2812336 166.018635 0.987270341 166.018635 0.987270341 175.697769 35.0988189 175.697769 35.0988189 175.962205 0.987270341 186.95958 0.987270341 195.256168 35.0988189 206.31916 35.0988189 206.517323 0.987270341 206.517323 0.987270341 216.066535 47.2812336 216.066535 47.2812336 200.78832 14.7510499 191.306037 14.7510499 191.041601"></polygon>
                <polygon id="Fill-18" fill="#FFFFFF" points="47.2812336 224.218373 0.987270341 224.218373 0.987270341 259.711811 9.87769029 259.711811 9.87769029 234.293832 20.1513123 234.293832 20.1513123 258.131102 28.8422572 258.131102 28.8422572 234.293832 38.4577428 234.293832 38.4577428 259.448688 47.2812336 259.448688"></polygon>
                <path d="M25.8141732,277.614698 L38.457874,277.614698 L38.457874,289.928346 C38.457874,294.80105 36.7446194,297.962467 31.6087927,297.962467 C27.3942257,297.962467 25.8141732,294.735433 25.8141732,289.993963 L25.8141732,277.614698 Z M31.6750656,308.564829 C42.9349081,308.564829 47.2813648,300.794488 47.2813648,289.797769 L47.2813648,267.539895 L0.987401575,267.539895 L0.987401575,277.614698 L16.7918635,277.614698 L16.7918635,290.060236 L0.987401575,299.015617 L0.987401575,311.133071 L19.0313648,300.662598 C21.8620735,305.798425 25.2872703,308.564829 31.6750656,308.564829 Z" id="Fill-20" fill="#FFFFFF"></path>
                <path d="M19.9528215,357.482021 L19.9528215,346.945932 C12.5112205,345.958399 8.95610236,342.138189 8.95610236,335.753018 C8.95610236,327.718241 13.9593832,323.569291 24.6942913,323.569291 C34.7034777,323.569291 39.5112205,327.718241 39.5112205,335.620472 C39.5112205,342.204462 36.2841864,345.892126 29.6339239,346.749738 L29.6339239,357.285827 C42.4738189,355.573228 48.2684383,346.683465 48.2684383,335.620472 C48.2684383,322.185433 39.5768373,313.033858 24.6942913,313.033858 C7.44166667,313.033858 6.56167979e-05,322.646063 6.56167979e-05,335.753018 C6.56167979e-05,347.803543 6.71660105,356.298294 19.9528215,357.482021" id="Fill-22" fill="#FFFFFF"></path>
                <path d="M0.132283465,383.680643 C0.132283465,396.98248 6.12309711,403.500853 17.7799213,403.500853 L47.2812336,403.500853 L47.2812336,393.42605 L19.9531496,393.42605 C13.5646982,393.42605 9.21824147,392.702297 9.21824147,383.812533 C9.21824147,375.118963 13.6309711,374.26332 19.9531496,374.26332 L47.2812336,374.26332 L47.2812336,364.121588 L17.7799213,364.121588 C6.12309711,364.121588 0.132283465,370.70689 0.132283465,383.680643" id="Fill-24" fill="#FFFFFF"></path>
                <path d="M25.8141732,420.875919 L38.457874,420.875919 L38.457874,433.190879 C38.457874,438.064239 36.7446194,441.225656 31.6087927,441.225656 C27.3942257,441.225656 25.8141732,437.998622 25.8141732,433.256496 L25.8141732,420.875919 Z M0.987401575,420.875919 L16.7918635,420.875919 L16.7918635,433.323425 L0.987401575,442.278806 L0.987401575,454.395604 L19.0313648,443.923163 C21.8620735,449.061614 25.2872703,451.825394 31.6750656,451.825394 C42.9349081,451.825394 47.2813648,444.055709 47.2813648,433.058333 L47.2813648,410.800459 L0.987401575,410.800459 L0.987401575,420.875919 Z" id="Fill-26" fill="#FFFFFF"></path>
                <g id="Group-30" transform="translate(0.656168, 452.116798)">
                    <mask id="mask-4" fill="white">
                        <use xlink:href="#path-3"></use>
                    </mask>
                    <g id="Clip-29"></g>
                    <polygon id="Fill-28" fill="#FFFFFF" mask="url(#mask-4)" points="0.331233596 18.8624016 0.331233596 28.9372047 16.9250656 28.9372047 46.6251969 47.2442913 46.6251969 35.6543963 26.8699475 23.9319554 46.6251969 12.1438976 46.6251969 0.423425197 16.9250656 18.8624016"></polygon>
                </g>
            </g>
        </g>
    </g>
</svg>